<?xml version="1.0" encoding="UTF-8"?>
<svg enable-background="new 0 0 288 360" viewBox="0 0 288 360" xmlns="http://www.w3.org/2000/svg">
 <path d="m6.723,174.191c4.646,2.78 4.046,8.524 2.345,12.624-.581-.564-1.309-1.08-1.441-1.879-.911-3.506-1.277-7.154-.904-10.745z" fill="#fff"/>
 <path d="m182.863,189.624c.227-1.656.132-4.039 2.269-4.731 2.979-.498 6.525.967 6.979,3.83-3.072.414-6.151.72-9.248.901z" fill="#fff"/>
 <path d="m83.223,188.359c3.13-2.389 9.414-.783 9.471,3.216-3.293,1.487-7.093.677-10.596.459 .203-1.248.013-2.723 1.125-3.675z" fill="#fff"/>
 <path d="m102.733,281.02c19.478-.647 38.949,1.119 58.433.403 4.4-.252 8.807-.526 13.225-.471-7.896,6.556-18.736,9.575-29.301,10.655-11.386.961-23.018-1.068-33.348-5.358-3.231-1.397-6.588-2.808-9.009-5.229z" fill="#fff"/>
 <path d="m117.058.285c11.348-1.006 22.607.895 33.854,1.936 12.645.934 25.723-.011 37.861,3.865 9.83,3.457 18.125,9.486 27.563,13.619 9.616,4.229 16.121,12.137 21.798,19.917 5.658,7.987 11.929,15.616 17.783,23.486 3.444,4.541 6.903,9.145 9.079,14.301 1.654,3.742 2.1,7.78 2.615,11.74 .83,6.505.697,13.066.582,19.598-.184,7.551-1.348,15.051-1.504,22.602-.146,3.199-.684,6.544.41,9.648 4.635,2.495 9.926,4.01 14.274,6.947 1.549,1.035 2.017,2.802 2.548,4.368 3.451,11.924 5.09,24.392 3.414,36.663-.822,5.141-1.827,10.33-4.135,15.135-2.1,4.541-5.025,8.73-7.207,13.238-4.033,8.805-4.443,18.742-9.837,27.094-2.649,4.094-7.788,5.906-11.937,8.523-2.074,1.141-2.375,3.417-2.807,5.348-2.131,10.229-4.932,20.363-8.77,30.203-1.012,3.287-3.174,6.141-4.938,9.133-1.973,3.315-4.598,6.287-7.536,8.978-7.231,6.684-13.339,14.251-20.69,20.84-8.42,7.623-17.959,14.323-28.474,19.564-4.963,2.343-9.837,4.866-15.009,6.84-5.961,2.339-12.422,3.301-18.73,4.608-5.514,1.254-11.267,1.874-16.95,1.314-4.893-.878-9.926-1.433-14.515-3.277-15.735-6.236-27.184-18.055-40.074-27.774-3.629-2.764-6.727-6.02-9.913-9.156-3.003-4.212-6.708-8.06-8.996-12.651-2.592-5.324-4.046-11.023-6.903-16.248-3.009-5.594-4.773-11.623-6.158-17.668-.917-4.14-1.183-8.43-2.889-12.406-.733-1.789-2.105-3.332-3.837-4.457-4.539-3.064-9.723-5.447-13.605-9.229-3.091-2.92-4.886-6.646-6.846-10.196-4.969-8.809-9.616-17.842-12.372-27.412-1.625-5.939-2.143-12.047-2.845-18.11-1.29-10.403-1.669-20.89-1.132-31.343 .152-.705-.089-1.885.948-2.109 4.59-1.6 9.597-1.829 14.275-3.132 .91-.8.202-2.148.202-3.154-2.162-9.397-6.404-18.374-7.706-27.933-.803-5.626.544-11.214 1.22-16.79 1.719-16.869 4.254-33.676 7.801-50.321 1.568-6.549 7.41-11.22 11.866-16.304 3.445-3.664 6.322-7.769 10.216-11.086 2.346-2.024 5.323-3.283 8.256-4.502 6.701-2.97 13.225-6.259 20.034-9.061 7.447-3.115 15.824-3.792 23.384-6.656 8.656-3.085 16.976-7.364 26.332-8.533m28.108,81.721c-6.305,1.571-11.943,4.62-17.645,7.383-2.498,1.175-4.881,2.634-7.644,3.283-3.161.71-6.41-.419-9.066-1.891-6.764-3.775-13.8-7.282-21.349-9.67-9.407-3.121-20.154-3.479-29.523-.067-6.751,2.528-13.782,5.313-18.542,10.453-6.12,5.761-10.886,12.848-12.631,20.667-.911,5.095-.746,10.319.107,15.414 .645,4.078 2.592,7.954 2.535,12.126-.019,6.052-.676,12.086-1.144,18.122-.708,5.856-1.378,11.846-3.907,17.344-.765-.498-1.542-.99-2.137-1.644-3.894-4.184-7.011-9.106-12.094-12.294-1.542-1.169-3.578-.218-4.976.654-1.346.8-2.415,2.439-1.302,3.775 5.671,7.254 14.186,12.109 21.026,18.391 2.314,1.974 3.104,4.827 3.642,7.534 1.295,6.029 2.181,12.299.878,18.385-2.421-2.158-3.269-5.186-4.64-7.881-2.554-5.27-4.204-10.9-7.51-15.861-3.313-.471-5.336,2.113-7.042,4.172-3.041,3.591-4.255,8.328-3.199,12.725 3.199,13.255 9.293,25.784 15.981,37.921 2.289,4.418 7.53,6.868 12.688,7.856-1.201-12.685-6.777-24.955-5.797-37.809 1.227.682 2.44,1.482 3.06,2.689 4.577,7.518 4.35,16.266 6.568,24.381 4.735,21.092 8.231,42.883 19.535,62.207 7.017,13.552 18.112,25.146 30.731,34.895 8.053,6.299 16.411,12.675 26.532,16.203 7.409,2.411 15.45,1.578 23.157,1.221 8.065-.146 16.285-1.053 23.707-3.993 8.022-3.155 15.19-7.714 22.315-12.183 10.19-6.706 19.51-14.414 27.904-22.837 6.36-6.454 12.588-13.133 16.93-20.84 5.379-8.854 8.213-18.659 10.703-28.401 2.959-12.697 4.465-25.604 7.131-38.347 .879-5.487 3.043-10.75 3.527-16.288 .905-6.555.424-13.166.537-19.749 .089-3.573-.227-7.333 1.498-10.672 1.811-3.512 4.205-6.751 6.298-10.129 2.845-4.351 5.38-8.848 7.959-13.328 1.397-.084 2.808-.112 4.218-.089-.955,3.893-3.877,7.024-6,10.448-3.92,5.923-6.146,12.607-7.365,19.352-.999,5.55-.854,11.181-1.358,16.763-.127,10.342-2.124,20.562-4.354,30.685-.633,3.088-1.486,6.157-1.594,9.313 1.377.431 2.781.834 4.203,1.174 2.586-4.077 4.121-8.59 6.024-12.938 3.735-9.514 7.726-18.949 12.397-28.139 5.873-11.354 5.437-24.246 3.723-36.36-.834-5.549-1.661-11.628-6.133-15.924-1.674-1.549-4.431-3.115-6.826-1.879-3.994,1.863-6.391,5.464-8.23,8.972-2.365,4.323-2.928,9.324-6.127,13.306-1.713-1.365-2.927-3.127-3.805-5-3.479-6.857-3.483-14.57-3.193-21.942 .059-4.178 1.012-8.44-.208-12.562-1.416-4.961-4.293-9.458-6.006-14.33-1.422-3.994-4.159-7.444-6.024-11.253-2.631-4.737-6.102-9.089-9.838-13.188-3.621-4.038-8.838-6.505-13.762-9.083-3.406-1.695-6.854-3.401-10.589-4.469-6.216-1.594-12.695-2.114-19.125-2.399-11.932-.231-23.413,2.996-34.829,5.625m-138.443,92.185c-.373,3.591-.007,7.239.903,10.745 .133.801.86,1.314 1.441,1.879 1.702-4.1 2.302-9.843-2.344-12.624z"/>
 <path d="m164.458,166.288c10.003-1.72 20.146-3.256 30.474-3.511 7.152-.033 13.531,2.732 19.02,5.73 3.412,1.875 6.718,3.844 10.173,5.693 1.196.637 2.414,1.312 3.166,2.262-1.233.662-2.785,1.991-4.446,1.174-3.33-1.511-6.08-3.635-9.691-4.852-3.065-1.178-6.625-1.287-10.031-1.383-12.352-.25-24.6,1.799-36,5.069-3.854.991-7.395,2.582-11.46,3.136-.476-2.944-.229-6.005 1.293-8.787 1.224-2.282 4.207-3.944 7.502-4.531z"/>
 <path d="m117.003,172.587c1.716,2.861 2.249,6.106 2.083,9.276-3.917-.314-7.438-1.77-11.197-2.564-11.154-2.71-22.994-4.062-34.709-2.957-3.229.333-6.602.69-9.401,2.154-3.315,1.542-5.721,3.992-8.74,5.829-1.5.983-3.103-.327-4.34-.949 .622-1.063 1.712-1.865 2.789-2.625 3.103-2.205 6.055-4.529 9.115-6.758 4.923-3.568 10.717-6.949 17.52-7.399 9.839-.43 19.63.519 29.305,1.673 3.188.402 6.187,1.971 7.575,4.32z"/>
 <path d="m265.913,177.85c-1.321-1.449-.835-3.938 1.138-4.715 4.635,5.688 9.401,12.344 8.155,19.688-1.031,5.459-5.272,10.851-11.474,12.438 1.043-3.658 3.813-6.645 5.385-10.106 1.701-3.585 2.979-7.669 1.613-11.5-.796-2.399-3.236-3.859-4.817-5.805z"/>
 <path d="m170.908,177.592c4.777-2.17 9.938-4.094 15.412-3.982 6.424.117 12.605,1.913 18.731,3.457 .41.956-.985.99-1.676,1.202-7.878,1.057-15.868-2.478-23.662-.28-7.446,2.349-12.871,7.708-19.274,11.571-1.189.744-2.6,1.103-3.979,1.433 2.106-6.175 8.29-10.43 14.448-13.401z"/>
 <path d="m69.657,179.645c9.04-3.042 19.231-3.099 28.417-.498 3.445,1.001 6.84,2.4 9.432,4.699-5.898-.066-11.386-2.472-17.278-2.617-9.798-.397-18.997,3.871-28.795,3.373 1.953-2.497 5.158-3.816 8.224-4.957z"/>
 <path d="m174.05,182.581c2.358-1.42 4.964-2.746 7.884-2.902 5.596-.364 11.127.716 16.563,1.728 6.386,1.157 12.612,2.97 18.522,5.403-.184,1.615-.814,3.147-1.572,4.619-4.502-.531-8.775-2.131-13.321-2.371-5.651-.119-9.457,5.072-15.198,4.625-4.24-.135-6.511-3.775-9.619-5.783-4.06.776-7.397,3.316-11.596,3.697 .947-4.027 4.689-6.806 8.337-9.016m8.813,7.043c3.097-.179 6.176-.487 9.248-.901-.454-2.863-4.002-4.328-6.979-3.83-2.137.691-2.042,3.075-2.269,4.731z"/>
 <path d="m68.506,187.045c5.039-2.467 10.709-4.441 16.576-3.971 9.375.643 18.099,4.043 26.697,7.17-.107,1.158-.303,2.311-.55,3.457-4.058-.012-8.085-.684-12.15-.426-4.729.158-9.477,1.394-14.193.453-5.93-1.112-12.037-1.18-18.055-.761-1.871.162-3.743-.032-5.544-.487 1.82-2.348 4.412-4.093 7.219-5.435m14.717,1.314c-1.112.951-.922,2.427-1.125,3.675 3.502.218 7.302,1.028 10.596-.459-.057-3.999-6.341-5.604-9.471-3.216z"/>
 <path d="m122.918,202.118c.55-2.399 4.805-2.824 6.076-.767 .202,4.066-.632,8.127-.556,12.205-.456,7.635.74,15.273.038,22.902 .025,1.13-.714,2.159-1.852,2.668-1.479.213-2.965-.105-4.432-.234-1.599-5.521-1.321-11.281-1.314-16.931-.065-6.643.511-13.333 2.04-19.843z"/>
 <path d="m17.912,211.9c-.075-3.793.848-7.92 4.002-10.684 .829,3.883.974,7.836 1.53,11.751 .348,3.591 1.069,7.144 1.435,10.733-4.577-2.414-6.745-7.268-6.967-11.8z"/>
 <path d="m110.724,232.779c1.246-.135 2.301.609 3.376,1.047 .297,4.642-1.776,9.061-1.707,13.688 6.455,3.305 12.442,8.147 20.173,8.779 6.556.297 11.525-4.083 17.159-6.309 4.285-1.914 9.323-2.053 13.92-1.029-1.133,1.829-3.168,2.938-5.248,3.781-6.498,2.733-12.838,5.744-19.351,8.462-4.172,1.807-9.445,2.247-13.548.051-7.005-3.69-13.807-7.681-20.401-11.919 .323-4.607 1.859-9.072 3.414-13.452 .556-1.09.753-2.668 2.213-3.099z"/>
 <path d="m144.009,233.266c2.459-.062 4.917.156 7.308.699 .052,3.172-.379,6.331-1.112,9.436-3.351-2.612-5.064-6.41-6.196-10.135z"/>
 <path d="m164.82,275.641c9.432-1.798 18.75-5.014 28.562-4.336-1.983,2.656-4.786,4.688-7.422,6.813-5.821,4.603-11.91,8.948-18.353,12.847-3.174,1.918-6.346,3.938-9.994,5.096-9.944,3.076-20.888,3.334-31.091,1.119-10.969-2.371-21.097-7.474-29.34-14.269-3.18-2.741-6.373-5.582-8.515-9.062 14.875.76 29.611,3.232 44.538,3.412 10.557.152 21.216.184 31.615-1.62m-62.087,5.379c2.421,2.422 5.778,3.832 9.009,5.229 10.33,4.29 21.962,6.319 33.348,5.358 10.564-1.08 21.405-4.101 29.301-10.655-4.418-.056-8.824.219-13.225.471-19.484.716-38.956-1.051-58.433-.403z"/>
</svg>
