<?xml version="1.0" encoding="UTF-8"?>
<svg width="210mm" height="297mm" version="1.1" xmlns="http://www.w3.org/2000/svg">
 <g transform="matrix(-1 0 0 1 982.12 1111.3)">
  <path d="m824.6-605.55c-4.3131 28.728 91.638 38.056 107.94 62.665l-132.2 4.0537-3.5569-3.0087-1.2158-10.701 7.6082-2.3017 9.813-1.1665-14.515 0.0349 0.0421-4.2666-2.8976-0.0407-2.3718-26.929 3.8723-1.2499 23.372-2.5357-27.898 0.80907-0.25996-8.1126 1.1598 0.0217-0.45197-7.2672 2.2945-2.2096z" fill="#aa7d4c" stroke="#000"/>
  <path d="m795.58-607.65v15.156l25.446 1.0102-23.758 2.9898 2.2187 25.156 3.1563-0.28125v5.9688l22.024 0.25254-21.212 2.185-0.3387 13.601-1.709 2.9642 132.19-4.16 3.3633-3.2237 0.6476-12.681h-0.5937v-14.094l-19.534-0.25254 15.847-2.2475-2.25-25.156-1.1562 0.0937v-7.2812z" fill="#c9a884" stroke="#000"/>
  <path d="m930.95-600.33-19.698 1.5152" fill="none" stroke="#000" stroke-width="1px"/>
  <path d="m802.66-563.71 18.688-1.7678" fill="none" stroke="#000" stroke-width="1px"/>
  <path d="m937.52-558.91-10.354 0.25254" fill="none" stroke="#000" stroke-width="1px"/>
  <path d="m802.89-541.22 34.638-2.0609" fill="none" stroke="#000" stroke-width=".95942px"/>
  <path d="m891.03-585.66 34.638-2.0609" fill="none" opacity=".2043" stroke="#000" stroke-width=".95942px"/>
  <path d="m819.34-548.03 48.962-2.5837" fill="none" opacity=".2043" stroke="#000" stroke-width="1.023px"/>
  <path d="m800.99-584.85 48.804-4.6964" fill="none" opacity=".2043" stroke="#000" stroke-width="1.023px"/>
  <path d="m807.55-586.11 48.804-4.6964" fill="none" opacity=".2043" stroke="#fff" stroke-width="1.023px"/>
  <path d="m843.1-550.33 48.936-3.0273" fill="none" opacity=".2043" stroke="#fff" stroke-width="1.023px"/>
  <path d="m877.44-572.55 48.936-3.0273" fill="none" opacity=".2043" stroke="#fff" stroke-width="1.023px"/>
  <path d="m803.12-541.61-1.709 2.9642 132.19-4.16 3.3633-3.2237z" fill-opacity=".32365"/>
  <path d="m792.56-590.61 3.5355-2.2728" fill="none" stroke="#000" stroke-width="1px"/>
  <path d="m795.59-560.3 4.0406-3.0305" fill="none" stroke="#000" stroke-width="1px"/>
  <path d="m799-556.77 3.5355-0.75761" fill="none" stroke="#000" stroke-width="1px"/>
 </g>
</svg>
